<svg xmlns="http://www.w3.org/2000/svg" xmlns:xlink="http://www.w3.org/1999/xlink" width="230" zoomAndPan="magnify" viewBox="0 0 172.5 44.999999" height="60" preserveAspectRatio="xMidYMid meet" version="1.0"><defs><g/><clipPath id="4f6460c180"><path d="M 4 3.875 L 41 3.875 L 41 40.519531 L 4 40.519531 Z M 4 3.875 " clip-rule="nonzero"/></clipPath><clipPath id="bab00a901b"><path d="M 1 7 L 46 7 L 46 35 L 1 35 Z M 1 7 " clip-rule="nonzero"/></clipPath><clipPath id="4d19ab6b07"><path d="M 27.039062 3.5 L 46.945312 27.796875 L 17.441406 51.964844 L -2.460938 27.667969 Z M 27.039062 3.5 " clip-rule="nonzero"/></clipPath><clipPath id="280cc0f135"><path d="M 27.039062 3.5 L 46.945312 27.796875 L 17.441406 51.964844 L -2.460938 27.667969 Z M 27.039062 3.5 " clip-rule="nonzero"/></clipPath></defs><g clip-path="url(#4f6460c180)"><path fill="#ab7652" d="M 21.777344 40.289062 C 18.738281 39.675781 15.652344 40.160156 12.597656 39.492188 C 11.34375 39.542969 12.253906 37.953125 11.179688 37.667969 C 10.726562 37.476562 10.429688 37.242188 10.660156 36.667969 C 10.5625 35.589844 8.96875 34.949219 8.140625 34.34375 C 3.074219 30.582031 4.363281 23.265625 4.855469 17.773438 C 6.089844 10.058594 14.265625 5.019531 21.464844 3.949219 C 23.90625 3.878906 26.324219 4.453125 28.722656 4.433594 C 30.386719 4.4375 31.6875 5.855469 33.367188 6.023438 C 37.117188 7.21875 38.558594 11.292969 39.859375 14.589844 C 39.925781 14.851562 40.183594 15.082031 39.882812 15.363281 C 39.699219 15.816406 40.28125 16.050781 40.210938 16.566406 C 40.023438 17.8125 40.363281 19.160156 39.589844 20.289062 C 38.242188 22.527344 41.34375 24.144531 39.070312 27.488281 C 38.632812 28.398438 38.570312 29.484375 37.804688 30.226562 C 37.121094 32.582031 35.167969 34.042969 33.285156 35.371094 C 31.734375 36.871094 29.96875 38.042969 27.984375 38.890625 C 26.003906 39.738281 23.933594 40.203125 21.777344 40.289062 Z M 21.777344 40.289062 " fill-opacity="1" fill-rule="nonzero"/></g><g clip-path="url(#bab00a901b)"><g clip-path="url(#4d19ab6b07)"><g clip-path="url(#280cc0f135)"><path fill="#150f0d" d="M 9.761719 25.183594 C 9.671875 24.992188 9.582031 24.804688 9.5 24.613281 C 9.453125 24.472656 9.398438 24.335938 9.335938 24.203125 C 8.890625 23.445312 8.855469 22.609375 8.855469 21.769531 C 8.867188 21.488281 8.933594 21.21875 9.058594 20.964844 C 9.34375 20.324219 9.753906 19.78125 10.296875 19.335938 C 10.667969 19.042969 10.984375 18.683594 11.328125 18.351562 C 11.390625 18.28125 11.460938 18.210938 11.535156 18.148438 C 11.847656 17.941406 12.078125 17.976562 12.199219 18.324219 C 12.4375 19.015625 12.738281 19.71875 12.816406 20.4375 C 12.90625 21.34375 12.730469 22.195312 12.289062 22.992188 C 11.957031 23.613281 11.421875 24.015625 10.929688 24.460938 C 10.601562 24.734375 10.40625 25.082031 10.335938 25.503906 C 10.1875 26.421875 9.769531 27.238281 9.363281 28.105469 C 9.453125 28.089844 9.554688 28.101562 9.617188 28.058594 C 10.007812 27.820312 10.371094 27.550781 10.710938 27.246094 C 11.761719 26.222656 12.902344 25.3125 14.128906 24.511719 C 14.511719 24.273438 14.953125 24.117188 15.347656 23.898438 C 15.835938 23.625 16.308594 23.332031 16.78125 23.035156 C 17.292969 22.710938 17.796875 22.371094 18.304688 22.042969 C 18.757812 21.765625 19.132812 21.40625 19.433594 20.964844 C 19.734375 20.527344 19.933594 20.046875 20.03125 19.523438 C 20.160156 18.980469 20.34375 18.457031 20.582031 17.953125 C 20.734375 17.617188 20.648438 17.308594 20.625 16.988281 C 20.601562 16.679688 20.519531 16.375 20.488281 16.066406 C 20.449219 15.761719 20.308594 15.515625 20.066406 15.324219 C 19.441406 14.765625 19.113281 14.042969 18.875 13.265625 C 18.847656 13.136719 18.808594 13.011719 18.761719 12.886719 C 18.441406 12.199219 18.605469 11.503906 18.746094 10.820312 C 18.835938 10.398438 19.0625 10.066406 19.417969 9.820312 C 19.597656 9.683594 19.730469 9.484375 19.90625 9.339844 C 20.183594 9.113281 20.484375 8.921875 20.765625 8.699219 C 21.121094 8.414062 21.457031 8.105469 21.808594 7.820312 C 22.296875 7.425781 22.671875 7.570312 22.753906 8.199219 C 22.851562 8.964844 22.933594 9.730469 22.992188 10.5 C 23.046875 11.070312 22.945312 11.613281 22.6875 12.125 C 22.472656 12.5625 22.359375 13.046875 22.140625 13.488281 C 21.921875 13.921875 21.667969 14.339844 21.382812 14.738281 C 21.179688 14.957031 21.121094 15.210938 21.210938 15.496094 C 21.320312 15.894531 21.40625 16.292969 21.472656 16.699219 C 21.640625 16.457031 21.734375 16.3125 21.832031 16.171875 C 22.003906 15.933594 22.183594 15.699219 22.355469 15.460938 C 22.421875 15.390625 22.476562 15.308594 22.515625 15.222656 C 22.914062 14.191406 23.453125 13.238281 24.125 12.363281 C 24.378906 12.015625 24.609375 11.660156 24.820312 11.289062 C 25.113281 10.816406 25.507812 10.453125 26 10.203125 C 26.4375 9.941406 26.894531 9.710938 27.347656 9.488281 C 27.921875 9.203125 28.535156 9.246094 29.136719 9.339844 C 29.859375 9.453125 30.574219 9.617188 31.296875 9.753906 C 31.488281 9.789062 31.683594 9.816406 31.878906 9.839844 C 32.214844 9.882812 32.367188 10.015625 32.289062 10.355469 C 32.21875 10.714844 32.078125 11.039062 31.859375 11.332031 C 31.390625 11.902344 30.871094 12.421875 30.300781 12.890625 C 29.78125 13.292969 29.21875 13.625 28.621094 13.890625 C 27.613281 14.339844 26.566406 14.664062 25.480469 14.867188 C 25.082031 14.949219 24.679688 15.023438 24.285156 15.128906 C 24.140625 15.164062 24.019531 15.238281 23.921875 15.351562 C 23.660156 15.664062 23.429688 16.003906 23.179688 16.328125 C 22.671875 16.996094 22.199219 17.6875 21.96875 18.511719 C 21.894531 18.726562 21.839844 18.945312 21.804688 19.171875 C 21.71875 20.210938 21.269531 21.054688 20.460938 21.710938 C 20.128906 22 19.828125 22.328125 19.46875 22.683594 C 19.679688 22.808594 19.898438 22.910156 20.132812 22.984375 C 20.527344 23.058594 20.894531 23.289062 21.324219 23.222656 C 21.425781 23.207031 21.519531 23.222656 21.613281 23.261719 C 22.304688 23.582031 22.988281 23.292969 23.675781 23.257812 C 23.933594 23.246094 24.226562 23.167969 24.449219 23.257812 C 24.800781 23.378906 25.152344 23.367188 25.496094 23.21875 C 25.933594 23.109375 26.253906 22.855469 26.460938 22.457031 C 27.007812 21.433594 27.710938 20.527344 28.570312 19.746094 C 29.03125 19.347656 29.527344 19.007812 30.066406 18.722656 C 30.28125 18.59375 30.570312 18.597656 30.820312 18.523438 C 31.484375 18.339844 32.144531 18.136719 32.808594 17.953125 C 33.429688 17.777344 34.0625 17.710938 34.707031 17.75 C 35.164062 17.769531 35.621094 17.757812 36.074219 17.710938 C 36.558594 17.675781 36.707031 17.816406 36.527344 18.269531 C 36.386719 18.601562 36.207031 18.914062 35.992188 19.203125 C 35.710938 19.621094 35.394531 20.015625 35.105469 20.429688 C 34.640625 21.097656 34.210938 21.792969 33.714844 22.433594 C 33.46875 22.722656 33.179688 22.960938 32.847656 23.144531 C 32.140625 23.589844 31.378906 23.863281 30.550781 23.96875 C 29.542969 24.085938 28.566406 23.839844 27.578125 23.761719 C 27.234375 23.734375 26.890625 23.667969 26.566406 24.035156 C 27.011719 24.128906 27.402344 24.234375 27.796875 24.28125 C 28.730469 24.371094 29.636719 24.570312 30.519531 24.878906 C 31.542969 25.261719 32.59375 25.480469 33.679688 25.546875 C 33.96875 25.570312 34.230469 25.5 34.46875 25.328125 C 34.835938 25.070312 35.238281 24.894531 35.675781 24.796875 C 36.582031 24.585938 37.472656 24.304688 38.410156 24.226562 C 39.207031 24.128906 39.976562 24.226562 40.726562 24.515625 C 41.046875 24.628906 41.363281 24.761719 41.667969 24.917969 C 42.296875 25.285156 42.722656 25.886719 43.242188 26.378906 C 43.8125 26.921875 44.394531 27.449219 44.96875 27.984375 C 45.089844 28.089844 45.207031 28.207031 45.316406 28.332031 C 45.574219 28.648438 45.53125 28.960938 45.15625 29.128906 C 44.765625 29.304688 44.363281 29.429688 43.945312 29.511719 C 43.5 29.601562 43.039062 29.597656 42.589844 29.667969 C 41.960938 29.769531 41.339844 29.925781 40.707031 30.003906 C 39.945312 30.101562 39.246094 29.933594 38.605469 29.503906 C 37.6875 28.90625 36.8125 28.246094 35.988281 27.523438 C 35.789062 27.355469 35.5625 27.214844 35.371094 27.035156 C 35.214844 26.871094 35.070312 26.699219 34.9375 26.515625 C 34.402344 26.472656 33.765625 26.425781 33.128906 26.371094 C 32.195312 26.28125 31.292969 26.070312 30.417969 25.730469 C 29.632812 25.425781 28.824219 25.25 27.984375 25.199219 C 27.910156 25.195312 27.828125 25.207031 27.71875 25.210938 C 27.769531 25.285156 27.789062 25.339844 27.824219 25.355469 C 28.65625 25.742188 29.296875 26.371094 29.960938 26.976562 C 30.214844 27.203125 30.496094 27.402344 30.765625 27.613281 C 31.140625 27.886719 31.558594 27.996094 32.019531 27.949219 C 32.976562 27.890625 33.824219 28.234375 34.632812 28.667969 C 34.941406 28.832031 35.238281 29.023438 35.519531 29.234375 C 35.753906 29.417969 35.960938 29.621094 36.148438 29.851562 C 36.433594 30.183594 36.695312 30.535156 36.929688 30.90625 C 37.160156 31.277344 37.332031 31.6875 37.523438 32.082031 C 37.6875 32.417969 37.742188 32.792969 37.984375 33.105469 C 38.160156 33.332031 38.207031 33.578125 38.128906 33.855469 C 38.117188 33.929688 38.089844 33.996094 38.046875 34.054688 C 38.003906 34.117188 37.949219 34.164062 37.882812 34.199219 C 37.816406 34.234375 37.742188 34.25 37.667969 34.25 C 37.59375 34.25 37.523438 34.230469 37.457031 34.199219 C 36.878906 33.996094 36.28125 33.90625 35.667969 33.921875 C 34.980469 33.9375 34.296875 33.902344 33.613281 33.824219 C 33.171875 33.734375 32.773438 33.554688 32.414062 33.289062 C 31.726562 32.8125 31.066406 32.285156 30.675781 31.511719 C 30.203125 31.175781 29.996094 30.644531 29.726562 30.167969 C 29.351562 29.515625 28.929688 28.875 28.820312 28.117188 C 28.734375 27.589844 28.464844 27.183594 28.007812 26.902344 C 27.445312 26.492188 26.886719 26.066406 26.3125 25.667969 C 25.871094 25.363281 25.417969 25.078125 24.957031 24.800781 C 24.761719 24.671875 24.554688 24.585938 24.328125 24.535156 C 23.769531 24.449219 23.203125 24.410156 22.644531 24.339844 C 22.097656 24.273438 21.546875 24.214844 21.003906 24.105469 C 20.113281 23.925781 19.222656 23.910156 18.328125 24.066406 C 17.542969 24.171875 16.800781 24.402344 16.09375 24.761719 C 15.363281 25.148438 14.671875 25.601562 14.023438 26.117188 C 14.125 26.144531 14.230469 26.160156 14.335938 26.171875 C 15.351562 26.175781 16.378906 26.160156 17.363281 26.40625 C 17.945312 26.578125 18.519531 26.546875 19.082031 26.3125 C 19.554688 26.125 20.039062 26.085938 20.535156 26.199219 C 20.761719 26.238281 20.988281 26.253906 21.21875 26.246094 C 22.429688 26.285156 23.589844 26.535156 24.707031 26.996094 C 25.1875 27.203125 25.578125 27.515625 25.875 27.945312 C 26.207031 28.410156 26.570312 28.851562 26.921875 29.300781 C 27.179688 29.625 27.1875 29.804688 26.828125 30.023438 C 26.382812 30.296875 25.902344 30.511719 25.433594 30.746094 C 25.171875 30.882812 24.902344 31.003906 24.628906 31.113281 C 24.183594 31.28125 23.734375 31.441406 23.246094 31.269531 C 23.148438 31.246094 23.050781 31.238281 22.953125 31.246094 C 22.4375 31.234375 21.992188 30.964844 21.507812 30.859375 C 20.632812 30.667969 20.003906 30.078125 19.355469 29.542969 C 18.914062 29.171875 18.550781 28.734375 18.269531 28.230469 C 18.027344 27.796875 17.691406 27.691406 17.285156 27.613281 C 16.710938 27.5 16.121094 27.441406 15.5625 27.28125 C 14.84375 27.082031 14.152344 27.136719 13.429688 27.214844 C 12.691406 27.292969 12.15625 27.636719 11.617188 28.089844 C 10.832031 28.710938 9.992188 29.246094 9.09375 29.6875 C 8.140625 30.191406 7.214844 30.742188 6.246094 31.214844 C 5.222656 31.730469 4.167969 32.171875 3.082031 32.539062 C 2.742188 32.648438 2.429688 32.835938 2.097656 32.972656 C 2.003906 33.011719 1.84375 33.042969 1.796875 32.996094 C 1.726562 32.902344 1.707031 32.796875 1.734375 32.683594 C 1.851562 32.269531 2.113281 31.992188 2.519531 31.855469 C 3.550781 31.507812 4.476562 30.953125 5.429688 30.449219 C 5.921875 30.191406 6.359375 29.835938 6.828125 29.539062 C 7.1875 29.316406 7.566406 29.121094 7.925781 28.902344 C 8.027344 28.847656 8.105469 28.769531 8.164062 28.671875 C 8.449219 28.152344 8.722656 27.632812 8.992188 27.109375 C 9.113281 26.878906 9.222656 26.636719 9.332031 26.398438 C 9.507812 26.015625 9.679688 25.628906 9.851562 25.242188 Z M 32.691406 20.441406 C 32.722656 20.519531 32.71875 20.597656 32.683594 20.675781 C 32.648438 20.753906 32.589844 20.804688 32.511719 20.835938 C 31.851562 21.195312 31.191406 21.558594 30.535156 21.929688 C 29.96875 22.25 29.40625 22.585938 28.84375 22.914062 C 29.261719 22.96875 29.679688 22.960938 30.097656 22.890625 C 30.707031 22.765625 31.300781 22.578125 31.898438 22.410156 C 32.46875 22.234375 32.910156 21.890625 33.222656 21.382812 C 33.832031 20.484375 34.40625 19.566406 35.140625 18.765625 C 35.191406 18.699219 35.238281 18.632812 35.28125 18.5625 C 34.429688 18.640625 33.644531 18.609375 32.886719 18.851562 C 32.121094 19.09375 31.347656 19.3125 30.574219 19.546875 C 30.496094 19.570312 30.421875 19.605469 30.351562 19.648438 C 29.417969 20.242188 28.589844 20.957031 27.859375 21.789062 C 27.683594 21.9375 27.59375 22.128906 27.589844 22.359375 C 27.933594 22.199219 28.230469 22.027344 28.550781 21.914062 C 29.625 21.550781 30.667969 21.117188 31.683594 20.617188 C 31.996094 20.425781 32.332031 20.363281 32.691406 20.441406 Z M 36.089844 25.773438 C 36.328125 25.804688 36.566406 25.832031 36.804688 25.871094 C 37.464844 25.980469 38.121094 26.140625 38.789062 26.199219 C 39.28125 26.230469 39.75 26.34375 40.199219 26.546875 C 40.546875 26.726562 40.882812 26.929688 41.203125 27.15625 C 41.253906 27.191406 41.246094 27.320312 41.265625 27.40625 C 41.179688 27.421875 41.085938 27.46875 41.011719 27.449219 C 40.726562 27.371094 40.453125 27.25 40.167969 27.183594 C 39.410156 26.992188 38.640625 26.867188 37.859375 26.8125 C 37.285156 26.789062 36.714844 26.722656 36.023438 26.664062 C 36.628906 27.074219 37.132812 27.433594 37.652344 27.765625 C 38.246094 28.117188 38.875 28.394531 39.535156 28.59375 C 39.984375 28.746094 40.4375 28.878906 40.929688 28.734375 C 41.277344 28.636719 41.628906 28.570312 41.988281 28.53125 C 42.578125 28.457031 43.171875 28.414062 43.808594 28.355469 C 43.707031 28.25 43.640625 28.175781 43.570312 28.113281 C 42.976562 27.578125 42.355469 27.066406 41.789062 26.5 C 41.335938 26.042969 40.824219 25.667969 40.253906 25.375 C 39.855469 25.148438 39.429688 25.050781 38.972656 25.082031 C 37.996094 25.191406 37.023438 25.316406 36.089844 25.773438 Z M 32.015625 28.882812 C 32.175781 29.011719 32.347656 29.132812 32.5 29.273438 C 33.011719 29.730469 33.515625 30.191406 34.019531 30.652344 C 34.222656 30.839844 34.433594 31.019531 34.628906 31.21875 C 34.734375 31.296875 34.769531 31.398438 34.738281 31.527344 C 34.703125 31.65625 34.621094 31.730469 34.492188 31.746094 C 34.347656 31.773438 34.207031 31.757812 34.070312 31.707031 C 33.65625 31.542969 33.28125 31.316406 32.941406 31.035156 C 32.421875 30.640625 31.921875 30.21875 31.449219 29.769531 C 31.109375 29.472656 30.753906 29.199219 30.375 28.949219 C 30.507812 29.25 30.660156 29.539062 30.835938 29.816406 C 30.996094 30.113281 31.351562 30.285156 31.378906 30.667969 C 31.382812 30.71875 31.460938 30.765625 31.503906 30.8125 C 31.800781 31.136719 32.09375 31.46875 32.394531 31.789062 C 32.886719 32.3125 33.359375 32.867188 34.070312 33.101562 C 34.367188 33.195312 34.671875 33.253906 34.980469 33.285156 C 35.566406 33.359375 36.160156 33.410156 36.765625 33.46875 C 36.523438 32.941406 36.316406 32.480469 36.105469 32.019531 C 36.023438 31.84375 35.929688 31.671875 35.851562 31.492188 C 35.617188 30.953125 35.132812 30.652344 34.726562 30.277344 C 34.566406 30.113281 34.398438 29.964844 34.214844 29.824219 C 34.015625 29.6875 33.765625 29.625 33.582031 29.476562 C 33.113281 29.128906 32.59375 28.929688 32.015625 28.882812 Z M 19.910156 27.050781 L 19.90625 27.132812 C 19.945312 27.164062 19.984375 27.1875 20.027344 27.203125 C 20.886719 27.304688 21.648438 27.703125 22.4375 28.019531 C 22.671875 28.132812 22.898438 28.265625 23.117188 28.40625 C 23.191406 28.433594 23.246094 28.480469 23.28125 28.550781 C 23.316406 28.617188 23.320312 28.691406 23.296875 28.765625 C 23.277344 28.847656 23.230469 28.914062 23.15625 28.960938 C 23.085938 29.007812 23.003906 29.019531 22.917969 29.003906 C 22.707031 28.992188 22.496094 28.960938 22.289062 28.910156 C 21.914062 28.796875 21.554688 28.617188 21.175781 28.523438 C 20.636719 28.382812 20.082031 28.292969 19.53125 28.183594 C 19.519531 28.21875 19.503906 28.257812 19.488281 28.292969 C 19.6875 28.417969 19.875 28.5625 20.082031 28.667969 C 20.550781 28.929688 21.035156 29.160156 21.535156 29.355469 C 22.039062 29.535156 22.613281 29.539062 23.09375 29.753906 C 23.558594 29.941406 24.035156 29.988281 24.523438 29.886719 C 25.074219 29.816406 25.617188 29.679688 26.238281 29.558594 C 25.933594 29.328125 25.664062 29.199219 25.5 28.988281 C 25.054688 28.410156 24.441406 28.082031 23.816406 27.757812 C 22.664062 27.15625 21.394531 27.125 20.140625 27.023438 C 20.0625 27.023438 19.988281 27.035156 19.910156 27.050781 Z M 24.757812 13.351562 C 25.441406 12.855469 26.117188 12.347656 26.808594 11.859375 C 27.164062 11.597656 27.539062 11.363281 27.933594 11.160156 C 28.28125 10.988281 28.519531 11.207031 28.4375 11.59375 C 28.402344 11.71875 28.339844 11.832031 28.25 11.929688 C 28.074219 12.125 27.890625 12.308594 27.691406 12.480469 C 27.28125 12.832031 26.859375 13.164062 26.476562 13.480469 C 27.941406 13.085938 29.308594 12.476562 30.578125 11.648438 C 30.949219 11.386719 31.226562 11.050781 31.417969 10.640625 C 30.585938 10.550781 29.761719 10.417969 28.9375 10.390625 C 28.457031 10.371094 27.996094 10.453125 27.550781 10.632812 C 26.261719 11.171875 25.332031 12.078125 24.757812 13.351562 Z M 21.96875 9.03125 C 21.445312 9.457031 20.957031 9.878906 20.445312 10.269531 C 20.121094 10.53125 19.871094 10.847656 19.703125 11.230469 C 19.558594 11.488281 19.472656 11.769531 19.445312 12.066406 C 19.429688 12.832031 19.804688 13.515625 20.003906 14.234375 C 20.011719 14.273438 20.070312 14.296875 20.175781 14.386719 C 20.175781 13.988281 20.15625 13.648438 20.175781 13.3125 C 20.199219 12.839844 20.234375 12.367188 20.300781 11.902344 C 20.300781 11.773438 20.34375 11.660156 20.429688 11.5625 C 20.515625 11.46875 20.621094 11.410156 20.75 11.394531 C 20.945312 11.992188 21.054688 12.601562 21.082031 13.230469 C 22.078125 11.976562 22.257812 10.585938 21.96875 9.03125 Z M 11.574219 18.875 C 9.917969 20.128906 9.128906 21.859375 10.246094 24.007812 C 10.496094 23.628906 10.632812 23.214844 10.648438 22.761719 C 10.65625 22.449219 10.6875 22.140625 10.742188 21.832031 C 10.773438 21.628906 10.847656 21.453125 11.109375 21.457031 C 11.5625 21.992188 11.089844 22.589844 11.226562 23.195312 C 11.746094 22.574219 11.976562 21.859375 11.921875 21.054688 C 11.902344 20.347656 11.707031 19.644531 11.574219 18.875 Z M 11.574219 18.875 " fill-opacity="1" fill-rule="nonzero"/></g></g></g><g fill="#150f0d" fill-opacity="1"><g transform="translate(52.90755, 29.604406)"><g><path d="M 13 -1.359375 L 13 0 L 2.4375 0 L 2.4375 -14.9375 L 12.671875 -14.9375 L 12.671875 -13.578125 L 4.015625 -13.578125 L 4.015625 -8.265625 L 11.734375 -8.265625 L 11.734375 -6.921875 L 4.015625 -6.921875 L 4.015625 -1.359375 Z M 13 -1.359375 "/></g></g></g><g fill="#150f0d" fill-opacity="1"><g transform="translate(67.18176, 29.604406)"><g><path d="M 12.359375 -15.84375 L 12.359375 0 L 10.90625 0 L 10.90625 -2.21875 C 10.445312 -1.46875 9.84375 -0.890625 9.09375 -0.484375 C 8.351562 -0.0859375 7.515625 0.109375 6.578125 0.109375 C 5.523438 0.109375 4.570312 -0.128906 3.71875 -0.609375 C 2.863281 -1.097656 2.191406 -1.773438 1.703125 -2.640625 C 1.222656 -3.515625 0.984375 -4.503906 0.984375 -5.609375 C 0.984375 -6.722656 1.222656 -7.710938 1.703125 -8.578125 C 2.191406 -9.441406 2.863281 -10.113281 3.71875 -10.59375 C 4.570312 -11.070312 5.523438 -11.3125 6.578125 -11.3125 C 7.484375 -11.3125 8.300781 -11.125 9.03125 -10.75 C 9.769531 -10.375 10.375 -9.820312 10.84375 -9.09375 L 10.84375 -15.84375 Z M 6.703125 -1.234375 C 7.484375 -1.234375 8.191406 -1.414062 8.828125 -1.78125 C 9.460938 -2.144531 9.957031 -2.660156 10.3125 -3.328125 C 10.675781 -3.992188 10.859375 -4.753906 10.859375 -5.609375 C 10.859375 -6.460938 10.675781 -7.222656 10.3125 -7.890625 C 9.957031 -8.566406 9.460938 -9.082031 8.828125 -9.4375 C 8.191406 -9.800781 7.484375 -9.984375 6.703125 -9.984375 C 5.898438 -9.984375 5.179688 -9.800781 4.546875 -9.4375 C 3.921875 -9.082031 3.425781 -8.566406 3.0625 -7.890625 C 2.695312 -7.222656 2.515625 -6.460938 2.515625 -5.609375 C 2.515625 -4.753906 2.695312 -3.992188 3.0625 -3.328125 C 3.425781 -2.660156 3.921875 -2.144531 4.546875 -1.78125 C 5.179688 -1.414062 5.898438 -1.234375 6.703125 -1.234375 Z M 6.703125 -1.234375 "/></g></g></g><g fill="#150f0d" fill-opacity="1"><g transform="translate(81.647996, 29.604406)"><g><path d="M 12.234375 -11.234375 L 12.234375 0 L 10.78125 0 L 10.78125 -2.046875 C 10.382812 -1.367188 9.835938 -0.835938 9.140625 -0.453125 C 8.441406 -0.078125 7.644531 0.109375 6.75 0.109375 C 5.28125 0.109375 4.117188 -0.296875 3.265625 -1.109375 C 2.421875 -1.929688 2 -3.132812 2 -4.71875 L 2 -11.234375 L 3.515625 -11.234375 L 3.515625 -4.859375 C 3.515625 -3.679688 3.804688 -2.785156 4.390625 -2.171875 C 4.972656 -1.566406 5.804688 -1.265625 6.890625 -1.265625 C 8.078125 -1.265625 9.007812 -1.625 9.6875 -2.34375 C 10.375 -3.0625 10.71875 -4.054688 10.71875 -5.328125 L 10.71875 -11.234375 Z M 12.234375 -11.234375 "/></g></g></g><g fill="#150f0d" fill-opacity="1"><g transform="translate(96.00755, 29.604406)"><g><path d="M 6.765625 0.109375 C 5.648438 0.109375 4.65625 -0.128906 3.78125 -0.609375 C 2.90625 -1.097656 2.21875 -1.78125 1.71875 -2.65625 C 1.226562 -3.53125 0.984375 -4.515625 0.984375 -5.609375 C 0.984375 -6.703125 1.226562 -7.679688 1.71875 -8.546875 C 2.21875 -9.421875 2.90625 -10.097656 3.78125 -10.578125 C 4.65625 -11.066406 5.648438 -11.3125 6.765625 -11.3125 C 7.734375 -11.3125 8.597656 -11.125 9.359375 -10.75 C 10.117188 -10.375 10.71875 -9.820312 11.15625 -9.09375 L 10.03125 -8.328125 C 9.664062 -8.878906 9.195312 -9.289062 8.625 -9.5625 C 8.050781 -9.84375 7.429688 -9.984375 6.765625 -9.984375 C 5.953125 -9.984375 5.222656 -9.800781 4.578125 -9.4375 C 3.929688 -9.082031 3.425781 -8.566406 3.0625 -7.890625 C 2.695312 -7.222656 2.515625 -6.460938 2.515625 -5.609375 C 2.515625 -4.742188 2.695312 -3.976562 3.0625 -3.3125 C 3.425781 -2.65625 3.929688 -2.144531 4.578125 -1.78125 C 5.222656 -1.414062 5.953125 -1.234375 6.765625 -1.234375 C 7.429688 -1.234375 8.050781 -1.367188 8.625 -1.640625 C 9.195312 -1.910156 9.664062 -2.320312 10.03125 -2.875 L 11.15625 -2.109375 C 10.71875 -1.390625 10.113281 -0.835938 9.34375 -0.453125 C 8.582031 -0.078125 7.722656 0.109375 6.765625 0.109375 Z M 6.765625 0.109375 "/></g></g></g><g fill="#150f0d" fill-opacity="1"><g transform="translate(108.020075, 29.604406)"><g><path d="M 6.703125 0.109375 C 5.617188 0.109375 4.640625 -0.132812 3.765625 -0.625 C 2.898438 -1.113281 2.21875 -1.789062 1.71875 -2.65625 C 1.226562 -3.53125 0.984375 -4.515625 0.984375 -5.609375 C 0.984375 -6.703125 1.226562 -7.679688 1.71875 -8.546875 C 2.21875 -9.421875 2.898438 -10.097656 3.765625 -10.578125 C 4.640625 -11.066406 5.617188 -11.3125 6.703125 -11.3125 C 7.785156 -11.3125 8.757812 -11.066406 9.625 -10.578125 C 10.488281 -10.097656 11.164062 -9.421875 11.65625 -8.546875 C 12.15625 -7.679688 12.40625 -6.703125 12.40625 -5.609375 C 12.40625 -4.515625 12.15625 -3.53125 11.65625 -2.65625 C 11.164062 -1.789062 10.488281 -1.113281 9.625 -0.625 C 8.757812 -0.132812 7.785156 0.109375 6.703125 0.109375 Z M 6.703125 -1.234375 C 7.492188 -1.234375 8.207031 -1.414062 8.84375 -1.78125 C 9.476562 -2.144531 9.972656 -2.660156 10.328125 -3.328125 C 10.679688 -3.992188 10.859375 -4.753906 10.859375 -5.609375 C 10.859375 -6.460938 10.679688 -7.222656 10.328125 -7.890625 C 9.972656 -8.566406 9.476562 -9.082031 8.84375 -9.4375 C 8.207031 -9.800781 7.492188 -9.984375 6.703125 -9.984375 C 5.898438 -9.984375 5.179688 -9.800781 4.546875 -9.4375 C 3.921875 -9.082031 3.425781 -8.566406 3.0625 -7.890625 C 2.695312 -7.222656 2.515625 -6.460938 2.515625 -5.609375 C 2.515625 -4.753906 2.695312 -3.992188 3.0625 -3.328125 C 3.425781 -2.660156 3.921875 -2.144531 4.546875 -1.78125 C 5.179688 -1.414062 5.898438 -1.234375 6.703125 -1.234375 Z M 6.703125 -1.234375 "/></g></g></g><g fill="#150f0d" fill-opacity="1"><g transform="translate(121.398145, 29.604406)"><g><path d="M 12.234375 -11.234375 L 12.234375 0 L 10.78125 0 L 10.78125 -2.046875 C 10.382812 -1.367188 9.835938 -0.835938 9.140625 -0.453125 C 8.441406 -0.078125 7.644531 0.109375 6.75 0.109375 C 5.28125 0.109375 4.117188 -0.296875 3.265625 -1.109375 C 2.421875 -1.929688 2 -3.132812 2 -4.71875 L 2 -11.234375 L 3.515625 -11.234375 L 3.515625 -4.859375 C 3.515625 -3.679688 3.804688 -2.785156 4.390625 -2.171875 C 4.972656 -1.566406 5.804688 -1.265625 6.890625 -1.265625 C 8.078125 -1.265625 9.007812 -1.625 9.6875 -2.34375 C 10.375 -3.0625 10.71875 -4.054688 10.71875 -5.328125 L 10.71875 -11.234375 Z M 12.234375 -11.234375 "/></g></g></g><g fill="#150f0d" fill-opacity="1"><g transform="translate(135.757699, 29.604406)"><g><path d="M 3.5625 -9.03125 C 3.914062 -9.78125 4.445312 -10.347656 5.15625 -10.734375 C 5.863281 -11.117188 6.734375 -11.3125 7.765625 -11.3125 L 7.765625 -9.84375 L 7.40625 -9.859375 C 6.226562 -9.859375 5.300781 -9.492188 4.625 -8.765625 C 3.957031 -8.046875 3.625 -7.03125 3.625 -5.71875 L 3.625 0 L 2.109375 0 L 2.109375 -11.234375 L 3.5625 -11.234375 Z M 3.5625 -9.03125 "/></g></g></g><g fill="#150f0d" fill-opacity="1"><g transform="translate(144.31369, 29.604406)"><g><path d="M 5.125 0.109375 C 4.207031 0.109375 3.332031 -0.0195312 2.5 -0.28125 C 1.675781 -0.550781 1.03125 -0.882812 0.5625 -1.28125 L 1.234375 -2.46875 C 1.703125 -2.101562 2.289062 -1.800781 3 -1.5625 C 3.71875 -1.332031 4.460938 -1.21875 5.234375 -1.21875 C 6.253906 -1.21875 7.007812 -1.375 7.5 -1.6875 C 7.988281 -2.007812 8.234375 -2.460938 8.234375 -3.046875 C 8.234375 -3.460938 8.097656 -3.785156 7.828125 -4.015625 C 7.554688 -4.253906 7.210938 -4.429688 6.796875 -4.546875 C 6.390625 -4.671875 5.847656 -4.789062 5.171875 -4.90625 C 4.253906 -5.082031 3.519531 -5.257812 2.96875 -5.4375 C 2.414062 -5.613281 1.941406 -5.914062 1.546875 -6.34375 C 1.148438 -6.769531 0.953125 -7.359375 0.953125 -8.109375 C 0.953125 -9.046875 1.34375 -9.8125 2.125 -10.40625 C 2.914062 -11.007812 4.007812 -11.3125 5.40625 -11.3125 C 6.125 -11.3125 6.847656 -11.210938 7.578125 -11.015625 C 8.304688 -10.828125 8.90625 -10.578125 9.375 -10.265625 L 8.703125 -9.046875 C 7.785156 -9.691406 6.6875 -10.015625 5.40625 -10.015625 C 4.4375 -10.015625 3.703125 -9.84375 3.203125 -9.5 C 2.710938 -9.15625 2.46875 -8.707031 2.46875 -8.15625 C 2.46875 -7.726562 2.609375 -7.382812 2.890625 -7.125 C 3.171875 -6.875 3.515625 -6.6875 3.921875 -6.5625 C 4.335938 -6.4375 4.910156 -6.3125 5.640625 -6.1875 C 6.535156 -6.019531 7.25 -5.847656 7.78125 -5.671875 C 8.320312 -5.503906 8.785156 -5.210938 9.171875 -4.796875 C 9.554688 -4.390625 9.75 -3.820312 9.75 -3.09375 C 9.75 -2.113281 9.335938 -1.332031 8.515625 -0.75 C 7.703125 -0.175781 6.570312 0.109375 5.125 0.109375 Z M 5.125 0.109375 "/></g></g></g><g fill="#150f0d" fill-opacity="1"><g transform="translate(154.747307, 29.604406)"><g><path d="M 11.890625 -5.140625 L 2.5 -5.140625 C 2.582031 -3.972656 3.03125 -3.03125 3.84375 -2.3125 C 4.65625 -1.59375 5.679688 -1.234375 6.921875 -1.234375 C 7.617188 -1.234375 8.257812 -1.359375 8.84375 -1.609375 C 9.425781 -1.859375 9.929688 -2.222656 10.359375 -2.703125 L 11.203125 -1.734375 C 10.703125 -1.128906 10.078125 -0.671875 9.328125 -0.359375 C 8.585938 -0.046875 7.769531 0.109375 6.875 0.109375 C 5.71875 0.109375 4.691406 -0.132812 3.796875 -0.625 C 2.910156 -1.113281 2.21875 -1.789062 1.71875 -2.65625 C 1.226562 -3.53125 0.984375 -4.515625 0.984375 -5.609375 C 0.984375 -6.703125 1.21875 -7.679688 1.6875 -8.546875 C 2.164062 -9.421875 2.820312 -10.097656 3.65625 -10.578125 C 4.488281 -11.066406 5.425781 -11.3125 6.46875 -11.3125 C 7.507812 -11.3125 8.441406 -11.066406 9.265625 -10.578125 C 10.085938 -10.097656 10.734375 -9.425781 11.203125 -8.5625 C 11.671875 -7.707031 11.90625 -6.722656 11.90625 -5.609375 Z M 6.46875 -10.015625 C 5.382812 -10.015625 4.472656 -9.664062 3.734375 -8.96875 C 3.003906 -8.28125 2.59375 -7.382812 2.5 -6.28125 L 10.453125 -6.28125 C 10.359375 -7.382812 9.941406 -8.28125 9.203125 -8.96875 C 8.472656 -9.664062 7.5625 -10.015625 6.46875 -10.015625 Z M 6.46875 -10.015625 "/></g></g></g></svg>