<svg xmlns="http://www.w3.org/2000/svg" xmlns:xlink="http://www.w3.org/1999/xlink" width="50" zoomAndPan="magnify" viewBox="0 0 37.5 37.499999" height="50" preserveAspectRatio="xMidYMid meet" version="1.0"><defs><clipPath id="1ec3ce80d8"><path d="M 2.613281 2.574219 L 34 2.574219 L 34 33.914062 L 2.613281 33.914062 Z M 2.613281 2.574219 " clip-rule="nonzero"/></clipPath><clipPath id="4be9d89100"><path d="M 0.046875 5.246094 L 37.007812 5.246094 L 37.007812 29 L 0.046875 29 Z M 0.046875 5.246094 " clip-rule="nonzero"/></clipPath><clipPath id="e350421fd4"><path d="M 22.324219 2.253906 L 39.351562 23.035156 L 14.113281 43.703125 L -2.914062 22.925781 Z M 22.324219 2.253906 " clip-rule="nonzero"/></clipPath><clipPath id="36e6c91d7a"><path d="M 22.324219 2.253906 L 39.351562 23.035156 L 14.113281 43.703125 L -2.914062 22.925781 Z M 22.324219 2.253906 " clip-rule="nonzero"/></clipPath></defs><g clip-path="url(#1ec3ce80d8)"><path fill="#ab7652" d="M 17.824219 33.71875 C 15.222656 33.195312 12.582031 33.609375 9.96875 33.039062 C 8.898438 33.082031 9.675781 31.722656 8.757812 31.476562 C 8.367188 31.3125 8.113281 31.113281 8.3125 30.621094 C 8.230469 29.699219 6.867188 29.152344 6.15625 28.632812 C 1.824219 25.417969 2.925781 19.160156 3.347656 14.460938 C 4.402344 7.863281 11.398438 3.554688 17.554688 2.636719 C 19.644531 2.578125 21.710938 3.070312 23.765625 3.054688 C 25.1875 3.054688 26.300781 4.269531 27.738281 4.414062 C 30.945312 5.433594 32.179688 8.917969 33.292969 11.738281 C 33.347656 11.964844 33.570312 12.160156 33.3125 12.402344 C 33.15625 12.789062 33.652344 12.988281 33.59375 13.429688 C 33.433594 14.496094 33.722656 15.648438 33.0625 16.613281 C 31.90625 18.527344 34.5625 19.910156 32.617188 22.769531 C 32.242188 23.550781 32.1875 24.476562 31.535156 25.113281 C 30.949219 27.128906 29.277344 28.375 27.667969 29.511719 C 26.339844 30.796875 24.832031 31.796875 23.132812 32.523438 C 21.4375 33.246094 19.667969 33.644531 17.824219 33.71875 Z M 17.824219 33.71875 " fill-opacity="1" fill-rule="nonzero"/></g><g clip-path="url(#4be9d89100)"><g clip-path="url(#e350421fd4)"><g clip-path="url(#36e6c91d7a)"><path fill="#ffffff" d="M 7.542969 20.800781 C 7.464844 20.636719 7.390625 20.476562 7.320312 20.3125 C 7.28125 20.191406 7.234375 20.074219 7.179688 19.960938 C 6.796875 19.3125 6.769531 18.597656 6.769531 17.878906 C 6.777344 17.640625 6.835938 17.410156 6.941406 17.191406 C 7.1875 16.644531 7.535156 16.179688 8 15.796875 C 8.320312 15.546875 8.589844 15.242188 8.882812 14.957031 C 8.9375 14.894531 8.996094 14.835938 9.0625 14.78125 C 9.328125 14.605469 9.523438 14.636719 9.628906 14.933594 C 9.832031 15.523438 10.089844 16.125 10.15625 16.742188 C 10.234375 17.515625 10.082031 18.242188 9.707031 18.925781 C 9.421875 19.457031 8.964844 19.800781 8.542969 20.179688 C 8.261719 20.414062 8.09375 20.710938 8.035156 21.074219 C 7.90625 21.859375 7.550781 22.558594 7.203125 23.296875 C 7.28125 23.285156 7.367188 23.296875 7.421875 23.257812 C 7.753906 23.054688 8.066406 22.824219 8.355469 22.5625 C 9.253906 21.6875 10.230469 20.910156 11.28125 20.226562 C 11.605469 20.019531 11.984375 19.886719 12.320312 19.699219 C 12.738281 19.464844 13.144531 19.214844 13.546875 18.960938 C 13.988281 18.683594 14.417969 18.394531 14.851562 18.113281 C 15.238281 17.875 15.558594 17.570312 15.816406 17.191406 C 16.074219 16.816406 16.246094 16.40625 16.328125 15.957031 C 16.4375 15.496094 16.597656 15.046875 16.800781 14.617188 C 16.929688 14.328125 16.855469 14.0625 16.835938 13.789062 C 16.816406 13.527344 16.746094 13.265625 16.71875 13.003906 C 16.6875 12.742188 16.566406 12.53125 16.359375 12.367188 C 15.824219 11.890625 15.542969 11.269531 15.339844 10.605469 C 15.316406 10.496094 15.28125 10.390625 15.242188 10.28125 C 14.96875 9.695312 15.109375 9.101562 15.230469 8.515625 C 15.304688 8.15625 15.5 7.871094 15.804688 7.660156 C 15.957031 7.542969 16.070312 7.371094 16.222656 7.25 C 16.460938 7.054688 16.714844 6.890625 16.957031 6.699219 C 17.261719 6.457031 17.546875 6.191406 17.847656 5.949219 C 18.265625 5.613281 18.589844 5.734375 18.65625 6.273438 C 18.742188 6.929688 18.8125 7.582031 18.863281 8.242188 C 18.910156 8.730469 18.820312 9.195312 18.601562 9.632812 C 18.417969 10.003906 18.320312 10.417969 18.132812 10.796875 C 17.945312 11.167969 17.730469 11.523438 17.484375 11.867188 C 17.3125 12.054688 17.261719 12.269531 17.339844 12.515625 C 17.433594 12.855469 17.503906 13.195312 17.5625 13.542969 C 17.707031 13.335938 17.785156 13.210938 17.871094 13.09375 C 18.015625 12.886719 18.171875 12.6875 18.316406 12.484375 C 18.375 12.425781 18.421875 12.355469 18.453125 12.28125 C 18.796875 11.398438 19.257812 10.582031 19.832031 9.835938 C 20.046875 9.539062 20.246094 9.234375 20.425781 8.917969 C 20.675781 8.511719 21.015625 8.199219 21.433594 7.988281 C 21.808594 7.761719 22.199219 7.566406 22.589844 7.375 C 23.078125 7.132812 23.605469 7.167969 24.117188 7.25 C 24.738281 7.347656 25.347656 7.484375 25.964844 7.601562 C 26.128906 7.632812 26.296875 7.65625 26.464844 7.675781 C 26.75 7.714844 26.882812 7.828125 26.816406 8.117188 C 26.753906 8.425781 26.632812 8.703125 26.449219 8.953125 C 26.046875 9.441406 25.601562 9.886719 25.113281 10.285156 C 24.667969 10.628906 24.1875 10.914062 23.675781 11.140625 C 22.816406 11.523438 21.917969 11.800781 20.992188 11.976562 C 20.648438 12.046875 20.304688 12.109375 19.96875 12.199219 C 19.84375 12.230469 19.742188 12.292969 19.65625 12.390625 C 19.433594 12.65625 19.234375 12.949219 19.023438 13.226562 C 18.589844 13.796875 18.183594 14.386719 17.988281 15.09375 C 17.921875 15.277344 17.875 15.464844 17.847656 15.65625 C 17.773438 16.546875 17.386719 17.269531 16.695312 17.828125 C 16.414062 18.078125 16.15625 18.355469 15.847656 18.660156 C 16.027344 18.769531 16.214844 18.855469 16.414062 18.917969 C 16.753906 18.980469 17.066406 19.179688 17.433594 19.121094 C 17.523438 19.109375 17.601562 19.121094 17.683594 19.15625 C 18.273438 19.429688 18.859375 19.183594 19.445312 19.152344 C 19.667969 19.140625 19.917969 19.074219 20.109375 19.152344 C 20.410156 19.257812 20.710938 19.246094 21.003906 19.117188 C 21.378906 19.027344 21.652344 18.808594 21.828125 18.46875 C 22.296875 17.59375 22.898438 16.816406 23.632812 16.148438 C 24.027344 15.808594 24.453125 15.519531 24.914062 15.273438 C 25.097656 15.164062 25.34375 15.167969 25.558594 15.101562 C 26.125 14.945312 26.691406 14.773438 27.257812 14.617188 C 27.789062 14.464844 28.332031 14.410156 28.882812 14.441406 C 29.273438 14.457031 29.664062 14.449219 30.054688 14.410156 C 30.46875 14.378906 30.59375 14.5 30.441406 14.886719 C 30.320312 15.171875 30.167969 15.4375 29.984375 15.683594 C 29.742188 16.042969 29.472656 16.378906 29.222656 16.734375 C 28.828125 17.304688 28.460938 17.898438 28.035156 18.449219 C 27.824219 18.695312 27.578125 18.898438 27.292969 19.054688 C 26.6875 19.4375 26.035156 19.671875 25.328125 19.761719 C 24.464844 19.859375 23.628906 19.648438 22.785156 19.582031 C 22.492188 19.558594 22.195312 19.503906 21.917969 19.816406 C 22.300781 19.898438 22.632812 19.988281 22.972656 20.027344 C 23.769531 20.105469 24.546875 20.273438 25.300781 20.539062 C 26.175781 20.867188 27.074219 21.054688 28.003906 21.109375 C 28.253906 21.128906 28.476562 21.070312 28.679688 20.921875 C 28.992188 20.703125 29.339844 20.550781 29.710938 20.46875 C 30.488281 20.289062 31.25 20.046875 32.050781 19.980469 C 32.734375 19.898438 33.390625 19.980469 34.035156 20.226562 C 34.308594 20.324219 34.578125 20.4375 34.839844 20.574219 C 35.375 20.886719 35.742188 21.402344 36.183594 21.820312 C 36.671875 22.285156 37.171875 22.738281 37.664062 23.195312 C 37.765625 23.285156 37.867188 23.386719 37.960938 23.492188 C 38.179688 23.761719 38.144531 24.03125 37.824219 24.175781 C 37.488281 24.324219 37.144531 24.429688 36.785156 24.5 C 36.40625 24.578125 36.011719 24.574219 35.628906 24.636719 C 35.089844 24.722656 34.558594 24.855469 34.015625 24.921875 C 33.363281 25.003906 32.765625 24.863281 32.21875 24.496094 C 31.433594 23.984375 30.683594 23.417969 29.980469 22.800781 C 29.808594 22.65625 29.617188 22.535156 29.453125 22.382812 C 29.316406 22.242188 29.195312 22.097656 29.082031 21.9375 C 28.625 21.902344 28.078125 21.863281 27.535156 21.816406 C 26.734375 21.738281 25.964844 21.558594 25.214844 21.265625 C 24.542969 21.007812 23.851562 20.855469 23.132812 20.8125 C 23.070312 20.808594 23 20.820312 22.90625 20.824219 C 22.949219 20.886719 22.964844 20.933594 22.996094 20.945312 C 23.707031 21.277344 24.253906 21.816406 24.824219 22.332031 C 25.039062 22.527344 25.28125 22.695312 25.511719 22.878906 C 25.832031 23.113281 26.191406 23.203125 26.585938 23.164062 C 27.402344 23.113281 28.128906 23.410156 28.820312 23.78125 C 29.085938 23.921875 29.339844 24.082031 29.578125 24.265625 C 29.777344 24.421875 29.957031 24.59375 30.117188 24.792969 C 30.359375 25.074219 30.585938 25.375 30.785156 25.695312 C 30.980469 26.011719 31.128906 26.363281 31.292969 26.699219 C 31.433594 26.988281 31.480469 27.308594 31.6875 27.574219 C 31.835938 27.769531 31.878906 27.980469 31.8125 28.214844 C 31.800781 28.28125 31.777344 28.335938 31.742188 28.386719 C 31.703125 28.441406 31.65625 28.480469 31.601562 28.511719 C 31.542969 28.539062 31.480469 28.554688 31.417969 28.554688 C 31.351562 28.554688 31.292969 28.535156 31.234375 28.511719 C 30.742188 28.335938 30.230469 28.257812 29.707031 28.273438 C 29.117188 28.285156 28.53125 28.257812 27.949219 28.191406 C 27.570312 28.113281 27.230469 27.960938 26.921875 27.730469 C 26.335938 27.324219 25.769531 26.875 25.433594 26.210938 C 25.03125 25.925781 24.855469 25.46875 24.621094 25.0625 C 24.300781 24.503906 23.941406 23.957031 23.847656 23.308594 C 23.773438 22.859375 23.542969 22.511719 23.152344 22.269531 C 22.671875 21.917969 22.195312 21.554688 21.703125 21.214844 C 21.324219 20.953125 20.9375 20.710938 20.542969 20.472656 C 20.375 20.363281 20.199219 20.289062 20.003906 20.246094 C 19.527344 20.171875 19.042969 20.136719 18.566406 20.078125 C 18.097656 20.019531 17.625 19.972656 17.160156 19.878906 C 16.398438 19.722656 15.636719 19.710938 14.871094 19.84375 C 14.199219 19.933594 13.566406 20.132812 12.960938 20.4375 C 12.335938 20.769531 11.746094 21.15625 11.1875 21.597656 C 11.277344 21.621094 11.367188 21.636719 11.457031 21.644531 C 12.324219 21.648438 13.203125 21.636719 14.046875 21.84375 C 14.542969 21.992188 15.035156 21.964844 15.515625 21.765625 C 15.921875 21.605469 16.335938 21.570312 16.761719 21.667969 C 16.953125 21.703125 17.148438 21.714844 17.34375 21.707031 C 18.378906 21.742188 19.375 21.957031 20.328125 22.351562 C 20.738281 22.527344 21.074219 22.792969 21.328125 23.160156 C 21.613281 23.558594 21.921875 23.9375 22.222656 24.320312 C 22.445312 24.597656 22.449219 24.75 22.144531 24.9375 C 21.761719 25.171875 21.351562 25.355469 20.949219 25.558594 C 20.726562 25.675781 20.496094 25.777344 20.261719 25.871094 C 19.882812 26.015625 19.496094 26.152344 19.078125 26.003906 C 18.996094 25.984375 18.910156 25.976562 18.828125 25.984375 C 18.386719 25.972656 18.007812 25.742188 17.59375 25.652344 C 16.84375 25.488281 16.304688 24.984375 15.75 24.527344 C 15.375 24.210938 15.0625 23.835938 14.820312 23.40625 C 14.613281 23.035156 14.328125 22.945312 13.980469 22.878906 C 13.488281 22.78125 12.984375 22.730469 12.507812 22.59375 C 11.890625 22.421875 11.300781 22.46875 10.679688 22.535156 C 10.050781 22.605469 9.59375 22.898438 9.132812 23.285156 C 8.460938 23.816406 7.742188 24.273438 6.972656 24.652344 C 6.15625 25.082031 5.363281 25.554688 4.535156 25.957031 C 3.660156 26.398438 2.757812 26.777344 1.828125 27.089844 C 1.539062 27.183594 1.269531 27.34375 0.988281 27.460938 C 0.90625 27.496094 0.769531 27.519531 0.730469 27.480469 C 0.667969 27.402344 0.652344 27.3125 0.675781 27.214844 C 0.777344 26.859375 1 26.621094 1.347656 26.503906 C 2.230469 26.207031 3.023438 25.734375 3.835938 25.304688 C 4.257812 25.082031 4.632812 24.777344 5.035156 24.523438 C 5.339844 24.335938 5.664062 24.167969 5.972656 23.980469 C 6.058594 23.933594 6.125 23.867188 6.175781 23.78125 C 6.421875 23.339844 6.65625 22.894531 6.886719 22.445312 C 6.988281 22.25 7.082031 22.042969 7.175781 21.839844 C 7.328125 21.511719 7.472656 21.179688 7.621094 20.851562 Z M 27.160156 16.742188 C 27.1875 16.8125 27.183594 16.878906 27.152344 16.945312 C 27.121094 17.011719 27.074219 17.054688 27.003906 17.082031 C 26.441406 17.386719 25.875 17.699219 25.316406 18.015625 C 24.832031 18.289062 24.347656 18.578125 23.867188 18.859375 C 24.226562 18.90625 24.582031 18.898438 24.941406 18.839844 C 25.460938 18.730469 25.96875 18.570312 26.480469 18.425781 C 26.96875 18.277344 27.347656 17.984375 27.613281 17.550781 C 28.136719 16.78125 28.625 15.996094 29.253906 15.308594 C 29.296875 15.253906 29.339844 15.195312 29.375 15.136719 C 28.644531 15.203125 27.976562 15.175781 27.328125 15.382812 C 26.671875 15.589844 26.011719 15.777344 25.347656 15.980469 C 25.28125 16 25.21875 16.027344 25.15625 16.066406 C 24.359375 16.574219 23.652344 17.183594 23.027344 17.894531 C 22.875 18.023438 22.796875 18.1875 22.796875 18.382812 C 23.089844 18.246094 23.34375 18.101562 23.617188 18.003906 C 24.535156 17.691406 25.429688 17.320312 26.296875 16.894531 C 26.566406 16.730469 26.851562 16.675781 27.160156 16.742188 Z M 30.066406 21.304688 C 30.269531 21.332031 30.472656 21.355469 30.679688 21.386719 C 31.242188 21.480469 31.804688 21.617188 32.375 21.667969 C 32.796875 21.695312 33.199219 21.792969 33.582031 21.964844 C 33.878906 22.121094 34.167969 22.292969 34.441406 22.488281 C 34.484375 22.515625 34.476562 22.628906 34.496094 22.699219 C 34.421875 22.714844 34.339844 22.753906 34.277344 22.738281 C 34.035156 22.671875 33.800781 22.566406 33.554688 22.511719 C 32.90625 22.347656 32.25 22.238281 31.582031 22.191406 C 31.089844 22.171875 30.601562 22.117188 30.011719 22.066406 C 30.527344 22.417969 30.957031 22.722656 31.402344 23.007812 C 31.910156 23.308594 32.449219 23.546875 33.015625 23.714844 C 33.398438 23.847656 33.785156 23.960938 34.207031 23.835938 C 34.503906 23.753906 34.804688 23.695312 35.113281 23.664062 C 35.617188 23.597656 36.125 23.5625 36.667969 23.511719 C 36.582031 23.421875 36.527344 23.359375 36.464844 23.304688 C 35.957031 22.847656 35.425781 22.410156 34.941406 21.925781 C 34.554688 21.535156 34.117188 21.214844 33.628906 20.964844 C 33.289062 20.769531 32.921875 20.6875 32.53125 20.710938 C 31.699219 20.804688 30.867188 20.914062 30.066406 21.304688 Z M 26.582031 23.964844 C 26.71875 24.074219 26.867188 24.175781 26.996094 24.296875 C 27.433594 24.6875 27.863281 25.082031 28.296875 25.476562 C 28.46875 25.636719 28.648438 25.789062 28.816406 25.960938 C 28.90625 26.027344 28.9375 26.113281 28.910156 26.226562 C 28.878906 26.335938 28.808594 26.398438 28.699219 26.414062 C 28.578125 26.4375 28.457031 26.421875 28.339844 26.378906 C 27.984375 26.238281 27.664062 26.042969 27.375 25.804688 C 26.929688 25.464844 26.5 25.105469 26.097656 24.722656 C 25.804688 24.46875 25.5 24.234375 25.179688 24.019531 C 25.292969 24.277344 25.421875 24.523438 25.570312 24.761719 C 25.710938 25.015625 26.011719 25.164062 26.035156 25.488281 C 26.039062 25.535156 26.105469 25.574219 26.144531 25.613281 C 26.398438 25.890625 26.648438 26.175781 26.90625 26.449219 C 27.328125 26.898438 27.730469 27.371094 28.339844 27.570312 C 28.59375 27.652344 28.855469 27.703125 29.117188 27.730469 C 29.617188 27.792969 30.125 27.835938 30.644531 27.886719 C 30.4375 27.433594 30.261719 27.039062 30.078125 26.644531 C 30.011719 26.496094 29.929688 26.347656 29.863281 26.195312 C 29.664062 25.734375 29.246094 25.476562 28.902344 25.15625 C 28.761719 25.015625 28.621094 24.890625 28.460938 24.769531 C 28.292969 24.652344 28.078125 24.597656 27.921875 24.472656 C 27.519531 24.175781 27.074219 24.003906 26.582031 23.964844 Z M 16.226562 22.398438 L 16.222656 22.464844 C 16.253906 22.492188 16.289062 22.511719 16.324219 22.527344 C 17.0625 22.613281 17.710938 22.953125 18.386719 23.226562 C 18.589844 23.320312 18.78125 23.433594 18.96875 23.554688 C 19.03125 23.578125 19.078125 23.621094 19.109375 23.679688 C 19.140625 23.734375 19.144531 23.800781 19.121094 23.863281 C 19.105469 23.933594 19.066406 23.988281 19.003906 24.03125 C 18.941406 24.070312 18.871094 24.082031 18.796875 24.066406 C 18.617188 24.058594 18.4375 24.03125 18.261719 23.988281 C 17.941406 23.890625 17.632812 23.734375 17.308594 23.65625 C 16.847656 23.535156 16.371094 23.457031 15.902344 23.367188 C 15.890625 23.394531 15.878906 23.429688 15.863281 23.457031 C 16.035156 23.566406 16.195312 23.6875 16.371094 23.78125 C 16.773438 24.003906 17.1875 24.199219 17.617188 24.367188 C 18.046875 24.519531 18.539062 24.523438 18.949219 24.707031 C 19.347656 24.867188 19.753906 24.910156 20.171875 24.820312 C 20.644531 24.761719 21.109375 24.644531 21.640625 24.542969 C 21.378906 24.34375 21.148438 24.234375 21.007812 24.054688 C 20.625 23.558594 20.101562 23.277344 19.566406 23 C 18.582031 22.488281 17.496094 22.460938 16.421875 22.375 C 16.355469 22.375 16.292969 22.382812 16.226562 22.398438 Z M 20.371094 10.679688 C 20.957031 10.253906 21.535156 9.820312 22.125 9.402344 C 22.429688 9.179688 22.75 8.980469 23.089844 8.804688 C 23.386719 8.660156 23.589844 8.847656 23.519531 9.175781 C 23.488281 9.285156 23.4375 9.378906 23.359375 9.464844 C 23.210938 9.632812 23.050781 9.789062 22.882812 9.933594 C 22.53125 10.234375 22.171875 10.519531 21.84375 10.789062 C 23.097656 10.453125 24.265625 9.933594 25.351562 9.222656 C 25.667969 9 25.90625 8.710938 26.070312 8.363281 C 25.359375 8.285156 24.652344 8.171875 23.949219 8.148438 C 23.535156 8.132812 23.144531 8.199219 22.761719 8.355469 C 21.660156 8.816406 20.863281 9.589844 20.371094 10.679688 Z M 17.988281 6.984375 C 17.539062 7.347656 17.121094 7.710938 16.683594 8.042969 C 16.40625 8.269531 16.191406 8.539062 16.046875 8.867188 C 15.925781 9.085938 15.851562 9.328125 15.828125 9.582031 C 15.8125 10.234375 16.136719 10.820312 16.304688 11.433594 C 16.3125 11.46875 16.363281 11.488281 16.453125 11.566406 C 16.453125 11.226562 16.4375 10.933594 16.453125 10.648438 C 16.472656 10.242188 16.503906 9.839844 16.558594 9.441406 C 16.558594 9.332031 16.597656 9.234375 16.667969 9.148438 C 16.742188 9.070312 16.832031 9.019531 16.945312 9.007812 C 17.109375 9.515625 17.203125 10.039062 17.226562 10.578125 C 18.078125 9.503906 18.234375 8.316406 17.988281 6.984375 Z M 9.09375 15.402344 C 7.675781 16.476562 7.003906 17.957031 7.957031 19.792969 C 8.171875 19.46875 8.289062 19.117188 8.300781 18.726562 C 8.308594 18.460938 8.335938 18.195312 8.382812 17.933594 C 8.410156 17.757812 8.472656 17.609375 8.695312 17.613281 C 9.085938 18.070312 8.679688 18.582031 8.796875 19.097656 C 9.242188 18.566406 9.4375 17.957031 9.390625 17.269531 C 9.375 16.664062 9.207031 16.0625 9.09375 15.402344 Z M 9.09375 15.402344 " fill-opacity="1" fill-rule="nonzero"/></g></g></g></svg>